<?xml version="1.0" standalone="no"?><!DOCTYPE svg PUBLIC "-//W3C//DTD SVG 1.1//EN" "http://www.w3.org/Graphics/SVG/1.1/DTD/svg11.dtd"><svg t="1726901633119" class="icon" viewBox="0 0 1024 1024" version="1.1" xmlns="http://www.w3.org/2000/svg" p-id="1197" xmlns:xlink="http://www.w3.org/1999/xlink" width="200" height="200"><path d="M265.54589844 680.75a104.99414063 104.99414063 0 0 0 102.19921875 101.27636719v101.30273437a51.60058594 51.60058594 0 0 0 103.17480469 0v-100.1953125h99.3515625v100.1953125a51.57421875 51.57421875 0 0 0 103.1484375 0v-101.30273437c102.22558594 0 102.22558594-45.3515625 102.22558593-101.27636719V409.16796875H265.54589844v271.58203125z m602.27929687-253.125a50.94140625 50.94140625 0 0 0-51.09960937 50.65136719V680.75a51.09960938 51.09960938 0 0 0 102.19921875 0v-202.57910156a50.94140625 50.94140625 0 0 0-50.96777344-50.78320313z m-711.67675781 0a50.94140625 50.94140625 0 0 0-51.09960938 50.65136719V680.75a51.12597656 51.12597656 0 0 0 102.22558594 0v-202.57910156A50.96777344 50.96777344 0 0 0 156.04296875 427.38769531z m617.8359375-81.44824219a170.49023438 170.49023438 0 0 0-80.63085938-144.38671875V90.125h-52.60253906v89.6484375a166.32421875 166.32421875 0 0 0-18.95800781-3.21679688 30.13769531 30.13769531 0 0 0-27.68554687-26.18261718h-151.55859376a27.89648438 27.89648438 0 0 0-25.78710937 26.3671875 164.7421875 164.7421875 0 0 0-14.58105469 2.37304687V90.125h-52.734375v109.45019531a170.56933594 170.56933594 0 0 0-84.00585937 146.46972657v10.54687499h508.43847656v-10.546875z m-372.59472656-68.5546875H350.34277344V226.78613281h51.046875v50.8359375z m290.40820312-2.16210937h-51.046875V224.9140625h51.046875v50.54589844z" fill="#A5CA3A" p-id="1198"></path></svg>