<?xml version="1.0" standalone="no"?><!DOCTYPE svg PUBLIC "-//W3C//DTD SVG 1.1//EN" "http://www.w3.org/Graphics/SVG/1.1/DTD/svg11.dtd"><svg t="1726117093651" class="icon" viewBox="0 0 1024 1024" version="1.1" xmlns="http://www.w3.org/2000/svg" p-id="1697" xmlns:xlink="http://www.w3.org/1999/xlink" width="1024" height="1024"><path d="M512 512m-450 0a450 450 0 1 0 900 0 450 450 0 1 0-900 0Z" fill="#ea0056" p-id="1698"></path><path d="M712.1 378.8c-0.1 0-0.1 0 0 0-0.1 0-0.1 0 0 0-10.6 0-19.2 9-19.2 20.1v290.9c0 21-17 37.9-37.9 37.9l-286-0.1c-20.9 0-37.9-16.9-37.9-37.9V398.9c0-11-8.5-20.1-19.1-20.1h-0.1-0.1c-10.6 0-19.1 9-19.1 20.1v342c0 53 38.4 96.1 85.7 96.1H645.2c47.3 0 85.7-43.1 85.7-96.1h0.1v-342c0.2-11.1-8.3-20.1-18.9-20.1zM324.6 276.2c5.1 6.6 14.6 8 21.4 2.8 0.8-0.6 82-61.4 162.6-61.4h2.1c81.6 1.1 167 61.1 167.9 61.7 2.7 1.9 5.8 2.8 8.9 2.8 4.8 0 9.4-2.3 12.4-6.4 1.9-2.6 2.8-5.6 2.8-8.6 0.2-4.9-2.1-9.8-6.3-12.8-3.7-2.7-94-66.1-185.2-67.4-91.6-1.2-179.8 64.8-183.5 67.7-3.8 2.9-5.8 7.3-6 11.7-0.4 3.5 0.6 7 2.9 9.9z" fill="#FFFFFF" p-id="1699"></path><path d="M651.3 330.3c-2.8-2-70.9-50-140-50.9-69.5-0.9-136.1 48.9-138.9 51-3.8 2.8-5.8 7.2-6 11.6-0.2 3.4 0.9 6.9 3.1 9.8 5.1 6.7 14.6 8 21.4 2.9 0.6-0.5 61.3-45.7 120.2-44.9 59.4 0.8 122 44.8 122.7 45.3 2.8 1.9 5.8 2.8 8.9 2.8 4.8 0 9.4-2.3 12.4-6.4 1.9-2.6 2.8-5.5 2.8-8.5-0.1-4.7-2.4-9.7-6.6-12.7zM512 370.1c-25.6 0-46.4 20.7-46.4 46.4 0 25.6 20.7 46.4 46.4 46.4 25.6 0 46.3-20.8 46.3-46.4 0-25.6-20.6-46.4-46.3-46.4z" fill="#FFFFFF" p-id="1700"></path></svg>