<?xml version="1.0" standalone="no"?><!DOCTYPE svg PUBLIC "-//W3C//DTD SVG 1.1//EN" "http://www.w3.org/Graphics/SVG/1.1/DTD/svg11.dtd"><svg t="1726119605702" class="icon" viewBox="0 0 1024 1024" version="1.1" xmlns="http://www.w3.org/2000/svg" p-id="9906" xmlns:xlink="http://www.w3.org/1999/xlink" width="1024" height="1024"><path d="M511.999634 511.999634m-511.999634 0a511.999634 511.999634 0 1 0 1023.999269 0 511.999634 511.999634 0 1 0-1023.999269 0Z" fill="#DEEEFF" p-id="9907"></path><path d="M243.614302 948.101418A219.428415 219.428415 0 0 1 438.856829 828.951789h146.28561a219.428415 219.428415 0 0 1 195.242527 119.149629A509.610303 509.610303 0 0 1 511.999634 1023.999269a509.610303 509.610303 0 0 1-268.385332-75.897851z" fill="#BFDFFF" p-id="9908"></path><path d="M511.170682 864.255383l112.37173-44.958444a14.628561 14.628561 0 0 1 19.772938 16.457131l-22.747412 113.688299a14.628561 14.628561 0 0 1-23.113127 8.85028l-86.284129-64.707002-86.308509 64.707002a14.628561 14.628561 0 0 1-23.088746-8.85028l-22.747412-113.688299a14.628561 14.628561 0 0 1 19.772938-16.457131l112.371729 44.958444z" fill="#9FCEFC" p-id="9909"></path><path d="M243.614302 948.101418a512.633539 512.633539 0 0 1-20.528747-13.336371A243.906873 243.906873 0 0 1 414.475894 805.789901V707.047114h195.04748v98.742787a243.906873 243.906873 0 0 1 191.39034 128.975146c-6.729138 4.607997-13.580181 9.045327-20.528748 13.336371a219.964795 219.964795 0 0 0-137.264663-111.420873l-22.552365 112.761824a14.628561 14.628561 0 0 1-23.113127 8.85028l-86.284129-64.707002-86.308509 64.707002a14.628561 14.628561 0 0 1-23.088746-8.85028l-22.479222-112.322967a219.964795 219.964795 0 0 0-135.679903 110.982016zM578.608349 828.951789h-133.217429c3.047617 5.266282 7.04609 9.89866 11.751611 13.702085l26.282648 10.483802c1.389713 0.146286 2.779427 0.195047 4.19352 0.195048h48.76187c0.731428 0 1.462856 0 2.194284-0.048762l29.793503-11.922277a49.005679 49.005679 0 0 0 10.239993-12.409896zM438.856829 804.570854h146.28561v-73.142805h-146.28561v73.142805z m6.217139 59.489481l-38.619401-15.433132 16.188941 80.871562 64.68262-48.518061-9.92304-3.974092a72.75271 72.75271 0 0 1-32.32912-12.921896z m99.132881 13.238848l-9.191612 3.65714 64.68262 48.542442 16.188941-80.871562-35.011022 13.994657a72.777091 72.777091 0 0 1-36.668927 14.677323z" fill="#1464B5" p-id="9910"></path><path d="M292.57122 585.142439a48.76187 48.76187 0 1 1 0-97.52374v97.52374z m438.856829-97.52374a48.76187 48.76187 0 1 1 0 97.52374v-97.52374z" fill="#F7FBFF" p-id="9911"></path><path d="M585.142439 741.61928V804.570854a48.76187 48.76187 0 0 1-48.76187 48.76187h-48.76187a48.76187 48.76187 0 0 1-48.76187-48.76187v-62.951574A195.120623 195.120623 0 0 1 316.952155 560.761504v-97.52374a195.04748 195.04748 0 1 1 390.094959 0v97.52374a195.120623 195.120623 0 0 1-121.904675 180.857776z" fill="#F7F9FF" p-id="9912"></path><path d="M511.999634 243.80935a219.428415 219.428415 0 0 1 219.428415 219.428414v97.52374a219.428415 219.428415 0 0 1-438.856829 0v-97.52374a219.428415 219.428415 0 0 1 219.428414-219.428414z m0 24.380935a195.04748 195.04748 0 0 0-195.047479 195.047479v97.52374a195.04748 195.04748 0 1 0 390.094959 0v-97.52374a195.04748 195.04748 0 0 0-195.04748-195.047479z" fill="#1464B5" p-id="9913"></path><path d="M707.047114 488.764603c-70.460902-0.414476-197.534335-63.146622-274.480566-130.559906A371.126592 371.126592 0 0 1 414.475894 341.33309a1342.95066 1342.95066 0 0 0-13.58018 20.845699c-26.526457 41.374447-57.685292 91.940506-83.943559 115.419346V609.523374h-24.380935a73.142805 73.142805 0 0 1-23.235031-142.530946c-0.390095-1.194666-0.78019-2.438093-1.145904-3.754664v-73.142805c0-134.655904 109.153446-243.80935 243.809349-243.809349s243.80935 109.153446 243.80935 243.809349v73.142805a35.47426 35.47426 0 0 1-1.462856 3.657141A73.167186 73.167186 0 0 1 731.428049 609.523374h-24.380935v-120.758771zM721.919484 463.237764c4.510473-1.145904 7.704375-2.925712 9.508565-5.339424V390.094959a219.428415 219.428415 0 0 0-438.856829 0v69.534427c0.463238 1.414094 0.877714 2.60876 1.267808 3.608378h2.218665c10.581326-7.728756 25.478077-25.502458 43.983207-52.345867 5.924567-8.582089 12.166087-17.99313 19.504748-29.330265-0.243809 0.341333 27.428552-42.910446 34.620928-53.73558l16.481512-24.77103 21.065127 21.040747c45.10473 45.055968 120.807533 92.452505 189.756817 119.466581 36.76645 14.384752 66.194238 20.796938 85.577082 21.089509V463.237764h14.87237zM292.57122 490.690697a16.091417 16.091417 0 0 1-9.240375-2.194284A48.76187 48.76187 0 0 0 292.57122 585.142439v-94.451742zM731.428049 487.618699v97.52374a48.76187 48.76187 0 1 0 0-97.52374z" fill="#1464B5" p-id="9914"></path><path d="M517.241535 586.337105a12.190467 12.190467 0 1 1-10.483802 21.991603l-24.380935-11.605325a12.190467 12.190467 0 0 1-6.241519-15.067418l21.845318-61.537479a12.190467 12.190467 0 1 1 22.96684 8.143232l-18.163796 51.199963 14.457894 6.875424z m-61.56186 85.333272a12.190467 12.190467 0 0 1 15.116179-19.139034c11.99542 9.459803 25.599982 14.140942 41.20378 14.140943 15.603798 0 29.20836-4.68114 41.20378-14.140943a12.190467 12.190467 0 0 1 15.11618 19.139034 88.746603 88.746603 0 0 1-56.31996 19.382844 88.746603 88.746603 0 0 1-56.319959-19.382844zM390.094959 524.190102a12.190467 12.190467 0 1 1 24.380935 0v24.380935a12.190467 12.190467 0 1 1-24.380935 0v-24.380935z m219.428415 0a12.190467 12.190467 0 1 1 24.380935 0v24.380935a12.190467 12.190467 0 1 1-24.380935 0v-24.380935z" fill="#1464B5" p-id="9915"></path><path d="M294.302266 464.456811c10.654469-6.972947 26.185124-25.185506 45.738634-53.564914 5.924567-8.582089 12.166087-17.99313 19.504748-29.330265-0.243809 0.341333 27.428552-42.910446 34.620928-53.73558l16.481512-24.77103 21.065127 21.040747c45.10473 45.055968 120.807533 92.452505 189.756817 119.466581 60.732909 23.771412 101.400309 25.770648 109.958017 14.33599V390.094959a219.428415 219.428415 0 0 0-438.856829 0v69.534427c0.658285 2.047999 1.267809 3.65714 1.731046 4.827425z" fill="#60ACF7" p-id="9916"></path></svg>