<?xml version="1.0" standalone="no"?><!DOCTYPE svg PUBLIC "-//W3C//DTD SVG 1.1//EN" "http://www.w3.org/Graphics/SVG/1.1/DTD/svg11.dtd"><svg t="1720576442146" class="icon" viewBox="0 0 1190 1024" version="1.1" xmlns="http://www.w3.org/2000/svg" p-id="940" xmlns:xlink="http://www.w3.org/1999/xlink" width="232.421875" height="200"><path d="M377 507.86486474l-11.8702705 21.21081065c-4.93783769 8.78108115-13.03783769 14.03513526-21.69729669 14.03513526H227.94054013c-8.65945987 0-16.78378359-5.25405411-21.69729667-14.03513526l-11.89459512-21.21081065H131.32432461C102.13513526 507.86486474 78.54054013 478.67567539 78.54054013 442.7V186.71081065c0-24.08108115 10.75135166-46.1918918 27.94864922-57.50270245C174.54864834 84.37837871 272.79459424 61.97567539 401.20270244 61.97567539c147.16216231 0 254.72432461 29.43243281 322.63783769 88.32162217h184.25675743c29.11621641 0 52.73513526 29.18918935 52.73513525 65.18918935v227.21351309c0 36-23.59459424 65.18918935-52.73513525 65.18918935H377zM399.42702705 923.68918935l-12.89189179 23.66756719c-4.86486474 8.92702705-12.84324346 14.2297295-21.38108115 14.22973038h-164.18918937c-8.5621623 0-16.54054013-5.30270244-21.40540487-14.22973038l-12.89189268-23.66756719H130.59459424c-28.72702705 0-52.0297295-29.62702705-52.0297295-66.1621623V626.81081065c0-36.53513526 23.30270244-66.16216231 52.05405411-66.16216231h28.45945987c0.34054013 0.72972949 0.70540576 1.41081065 1.07026962 2.09189179l19.45945986 35.68378448c4.84054013 8.92702705 12.81891885 14.2297295 21.35675654 14.22972949h164.21351398c8.51351309 0 16.54054013-5.30270244 21.40540487-14.22972949l19.41081065-35.68378448c0.36486474-0.68108115 0.72972949-1.38648692 1.04594589-2.09189179h624.96486563c28.72702705 0 52.0297295 29.62702705 52.0297295 66.16216231v230.7162164c0 36.53513526-23.30270244 66.16216231-52.05405411 66.1621623H399.45135166z m568.55675654-202.6702705c21.35675654 0 38.67567539-17.95135166 38.67567628-40.08648604 0-22.13513526-17.31891885-40.08648691-38.67567628-40.08648691-21.35675654 0-38.67567539 17.95135166-38.67567539 40.08648691 0 22.13513526 17.31891885 40.08648691 38.67567539 40.08648604z" fill="#5579FB" p-id="941"></path></svg>