<?xml version="1.0" standalone="no"?><!DOCTYPE svg PUBLIC "-//W3C//DTD SVG 1.1//EN" "http://www.w3.org/Graphics/SVG/1.1/DTD/svg11.dtd"><svg t="1726117140621" class="icon" viewBox="0 0 1024 1024" version="1.1" xmlns="http://www.w3.org/2000/svg" p-id="1850" xmlns:xlink="http://www.w3.org/1999/xlink" width="1024" height="1024"><path d="M512 932A420 420 0 1 1 512 92a420 420 0 0 1 0 840z m212.58-466.68H486.08a20.76 20.76 0 0 0-20.76 20.76v51.84c0 11.46 9.3 20.76 20.7 20.76h145.2c11.52 0 20.76 9.3 20.76 20.7v10.38c0 34.38-27.84 62.22-62.22 62.22H392.72a20.76 20.76 0 0 1-20.7-20.7V434.24c0-34.38 27.84-62.22 62.16-62.22h290.4c11.4 0 20.7-9.3 20.7-20.76v-51.84a20.76 20.76 0 0 0-20.7-20.76h-290.4a155.52 155.52 0 0 0-155.52 155.58v290.34c0 11.46 9.3 20.76 20.76 20.76h305.88a139.98 139.98 0 0 0 140.04-139.98V486.08a20.76 20.76 0 0 0-20.76-20.76z" fill="#C71D23" p-id="1851"></path></svg>