<?xml version="1.0" standalone="no"?><!DOCTYPE svg PUBLIC "-//W3C//DTD SVG 1.1//EN" "http://www.w3.org/Graphics/SVG/1.1/DTD/svg11.dtd"><svg t="1726117145613" class="icon" viewBox="0 0 1024 1024" version="1.1" xmlns="http://www.w3.org/2000/svg" p-id="1997" xmlns:xlink="http://www.w3.org/1999/xlink" width="1024" height="1024"><path d="M511.62332577 101.70772891C278.74455939 101.61356015 90.125 290.13895078 90.125 522.82938046 90.125 706.83468204 208.11816406 863.24860468 372.44224295 920.69140625c22.12960391 5.55594296 18.73953671-10.17020077 18.73953754-20.9054133v-72.98060779c-127.78669061 14.97279611-132.96596018-69.59054141-141.53529612-83.71582031C232.3194758 713.52064768 191.35616641 705.98716482 203.59807501 691.86188592c29.09807501-14.97279611 58.76116095 3.76674142 93.13267264 54.52357737 24.86049142 36.81989374 73.35728201 30.60477109 97.93526797 24.4838172 5.36760626-22.12960391 16.85616641-41.90499454 32.67647892-57.25446487-132.40094842-23.73046875-187.58370547-104.52706485-187.58370548-200.57896171 0-46.61342111 15.34946951-89.4601008 45.48339844-124.01995001-19.2103797-56.97195859 1.78920236-105.75125546 4.61425781-113.00223202 54.71191406-4.89676328 111.58970389 39.17410702 116.015625 42.65834298 31.07561407-8.38099924 66.57714844-12.80691952 106.31626639-12.80692035 39.92745548 0 75.5231586 4.61425781 106.88127814 13.08942581 10.64104376-8.09849295 63.37541876-45.95424142 114.22642346-41.33998361 2.7308875 7.25097656 23.25962576 54.90025076 5.17926874 111.11886173 30.51060233 34.65401798 46.04840936 77.87737189 46.04840936 124.58496093 0 96.24023438-55.55943045 177.13099924-188.3370531 200.48479377a120.06487189 120.06487189 0 0 1 35.87820859 85.69335937v105.93959217c0.75334845 8.47516718 0 16.85616641 14.1252789 16.85616641 166.77246094-56.21861014 286.83733282-213.76255545 286.83733282-399.36872187 0-232.78459845-188.71372732-421.21582031-421.40415784-421.21582031z" p-id="1998"></path></svg>