<?xml version="1.0" standalone="no"?><!DOCTYPE svg PUBLIC "-//W3C//DTD SVG 1.1//EN"
  "http://www.w3.org/Graphics/SVG/1.1/DTD/svg11.dtd">
<svg t="0" class="icon" viewBox="0 0 1024 1024" version="1.1" xmlns="http://www.w3.org/2000/svg"
  xmlns:xlink="http://www.w3.org/1999/xlink" width="1024" height="1024">
  <defs>
    <filter id="icon_shadow" x="-20%" y="-20%" width="140%" height="140%">
      <feGaussianBlur in="SourceAlpha" stdDeviation="20"/>
      <feOffset dx="0" dy="15" result="offsetblur"/>
      <feComponentTransfer>
        <feFuncA type="linear" slope="0.3"/>
      </feComponentTransfer>
      <feMerge>
        <feMergeNode/>
        <feMergeNode in="SourceGraphic"/>
      </feMerge>
    </filter>
  </defs>
  <g transform="translate(102.4000 102.4000) scale(0.8)" filter="url(#icon_shadow)">
    <!-- path start -->
    <g transform="translate(0.000000,1024.000000) scale(0.100000,-0.100000)"
fill="#EA2556" stroke="none">
<path d="M4975 9893 c-33 -2 -67 -6 -75 -9 -8 -4 -40 -8 -70 -9 -30 -2 -89
-11 -130 -20 -41 -9 -102 -21 -135 -26 -32 -5 -64 -14 -69 -19 -6 -6 -24 -10
-41 -10 -17 0 -39 -6 -50 -14 -11 -7 -42 -16 -68 -19 -27 -4 -58 -14 -70 -22
-12 -8 -30 -15 -39 -15 -10 0 -26 -4 -36 -9 -9 -5 -51 -19 -92 -32 -41 -12
-84 -27 -95 -34 -11 -6 -33 -15 -50 -19 -16 -4 -43 -13 -60 -21 -63 -29 -103
-45 -113 -45 -6 0 -23 -6 -39 -14 -15 -8 -46 -23 -68 -33 -22 -10 -43 -23 -48
-30 -4 -6 -21 -14 -37 -18 -17 -4 -51 -17 -76 -31 -25 -13 -51 -24 -58 -24 -8
0 -19 -6 -25 -14 -7 -8 -24 -17 -39 -21 -15 -4 -34 -13 -42 -20 -8 -7 -40 -27
-70 -43 -122 -65 -150 -81 -178 -101 -17 -11 -33 -21 -36 -21 -3 0 -26 -15
-52 -32 -25 -18 -60 -41 -78 -51 -17 -11 -40 -27 -52 -38 -11 -10 -24 -19 -28
-19 -5 0 -30 -16 -56 -35 -26 -19 -51 -35 -55 -35 -4 0 -31 -20 -59 -45 -29
-25 -56 -45 -59 -45 -10 0 -47 -34 -47 -43 0 -7 -37 -64 -50 -77 -58 -58 -52
-385 7 -423 7 -4 13 -14 13 -21 0 -20 58 -96 74 -96 7 0 21 -9 30 -19 70 -77
364 -88 461 -17 17 12 41 27 55 34 50 24 119 67 142 88 13 12 43 32 68 45 25
13 48 28 51 32 7 9 44 32 69 42 8 4 22 11 30 16 8 5 26 15 40 21 14 7 28 16
31 20 6 9 38 27 323 176 44 23 84 42 90 42 6 0 36 12 66 26 30 14 75 35 100
47 25 11 53 24 62 28 10 5 23 9 30 9 7 1 31 9 53 20 22 11 47 20 55 20 8 0 27
6 42 14 14 8 45 17 68 21 23 4 54 13 68 21 15 8 41 14 59 14 17 0 34 4 37 9 3
5 27 12 53 16 27 4 53 10 58 15 6 4 34 10 64 14 30 4 60 10 65 14 6 3 36 7 66
9 30 1 114 7 185 14 101 10 163 10 275 1 80 -7 164 -12 187 -12 23 0 44 -4 47
-9 3 -5 33 -12 66 -16 33 -4 62 -10 65 -15 3 -4 34 -11 70 -15 36 -3 67 -10
70 -15 3 -4 25 -11 50 -14 24 -4 47 -11 50 -16 3 -4 28 -11 57 -15 29 -4 59
-11 68 -16 33 -18 87 -37 135 -49 28 -6 61 -16 75 -22 31 -13 86 -36 125 -53
17 -8 41 -17 55 -20 14 -4 66 -26 115 -50 115 -54 315 -153 335 -165 8 -5 22
-11 30 -15 8 -3 33 -17 55 -30 22 -14 49 -29 60 -35 110 -59 279 -161 283
-172 2 -4 9 -8 16 -8 8 0 24 -9 38 -19 28 -22 117 -71 129 -71 4 0 20 -5 36
-12 15 -6 82 -12 148 -13 148 -1 170 8 276 114 71 71 88 96 119 179 18 48 9
242 -13 276 -9 14 -17 30 -17 37 0 6 -13 28 -30 49 -16 21 -30 42 -30 48 0 5
-9 12 -20 15 -11 3 -20 12 -20 21 0 9 -5 16 -11 16 -6 0 -39 23 -74 50 -35 28
-66 50 -70 50 -5 0 -23 11 -41 25 -18 14 -36 25 -39 25 -4 0 -24 13 -44 29
-35 27 -51 37 -138 81 -23 12 -47 28 -54 36 -6 8 -17 14 -24 14 -7 0 -24 9
-38 20 -14 11 -31 20 -38 20 -6 0 -26 10 -43 23 -17 12 -42 28 -56 35 -14 6
-32 16 -40 21 -8 5 -26 14 -40 20 -14 6 -32 15 -40 20 -8 5 -26 13 -40 19 -40
17 -114 52 -130 61 -32 18 -127 61 -135 61 -5 0 -38 14 -74 31 -87 41 -101 47
-131 54 -14 4 -38 12 -55 20 -66 29 -82 35 -125 46 -25 6 -49 15 -55 19 -5 5
-28 11 -50 15 -40 6 -62 14 -120 41 -16 8 -52 17 -80 21 -27 3 -59 12 -70 19
-11 8 -38 14 -60 14 -23 0 -46 5 -51 10 -6 6 -35 15 -65 21 -160 30 -194 37
-199 39 -3 1 -32 4 -65 6 -33 1 -107 7 -165 12 -99 9 -484 12 -615 5z"/>
<path d="M8570 8084 c-45 -9 -87 -25 -107 -40 -17 -13 -35 -24 -40 -24 -4 0
-21 -14 -37 -30 -16 -17 -33 -30 -38 -30 -4 0 -8 -7 -8 -15 0 -7 -7 -18 -15
-22 -10 -6 -17 -32 -21 -73 -4 -36 -12 -71 -18 -79 -8 -10 -12 -682 -14 -2455
-1 -1403 -6 -2450 -12 -2461 -4 -11 -11 -49 -13 -84 -3 -35 -10 -68 -16 -74
-6 -6 -11 -18 -11 -26 0 -41 -64 -141 -137 -213 -108 -106 -154 -130 -268
-135 -49 -3 -94 -9 -99 -14 -13 -12 -4703 -12 -4710 0 -3 4 -47 11 -98 14 -91
5 -105 9 -194 61 -81 45 -212 216 -229 296 -4 19 -12 41 -19 49 -8 10 -12 605
-14 2265 -1 1387 -6 2259 -11 2271 -6 11 -12 146 -14 300 -2 176 -7 287 -14
300 -6 11 -17 33 -24 49 -24 51 -34 66 -42 66 -5 0 -27 15 -50 33 -83 65 -99
69 -243 66 -124 -4 -132 -5 -167 -31 -19 -16 -40 -28 -44 -28 -11 0 -71 -61
-87 -88 -55 -95 -49 2 -59 -1052 -9 -1088 0 -5007 13 -5145 10 -107 29 -216
40 -230 4 -5 11 -26 15 -45 4 -19 11 -39 15 -45 4 -5 10 -23 14 -40 4 -16 13
-43 20 -60 8 -16 24 -52 36 -80 40 -91 55 -120 66 -127 7 -4 15 -20 18 -34 4
-15 12 -33 19 -40 16 -18 119 -157 142 -192 17 -27 140 -152 149 -152 4 0 29
-18 54 -41 26 -23 57 -45 69 -50 13 -5 23 -13 23 -19 0 -5 5 -10 10 -10 9 0
66 -35 80 -50 5 -5 169 -86 235 -116 56 -25 120 -34 265 -34 103 0 150 -4 158
-12 18 -18 4512 -19 4533 -2 8 7 62 14 124 16 78 2 120 9 144 21 19 9 41 17
51 17 39 0 283 135 376 208 29 23 57 42 62 42 9 0 200 195 217 222 6 8 29 43
53 77 23 34 42 66 42 71 0 5 6 13 13 17 21 14 125 215 148 288 7 22 16 45 20
50 4 6 10 27 14 48 4 20 11 39 15 42 5 3 12 30 15 60 4 31 11 58 15 60 5 3 12
41 16 85 3 44 11 83 15 86 21 13 19 6007 -2 6019 -5 4 -9 21 -9 39 0 18 -9 45
-20 59 -11 14 -20 30 -20 36 0 17 -102 116 -140 135 -32 17 -50 22 -145 39
-16 3 -64 -1 -105 -9z"/>
<path d="M5095 8049 c-27 -4 -104 -15 -170 -23 -66 -9 -131 -20 -145 -26 -14
-5 -47 -14 -75 -19 -96 -19 -150 -33 -159 -42 -6 -5 -22 -9 -36 -9 -14 0 -35
-6 -46 -14 -11 -8 -37 -17 -57 -21 -21 -4 -40 -11 -43 -16 -3 -5 -14 -9 -24
-9 -11 0 -41 -10 -67 -21 -27 -12 -61 -27 -78 -34 -155 -66 -474 -225 -543
-271 -15 -10 -52 -31 -82 -47 -90 -46 -114 -61 -161 -98 -24 -19 -64 -48 -89
-63 -49 -31 -150 -131 -150 -150 0 -6 -8 -23 -17 -36 -39 -55 -62 -261 -35
-318 53 -110 83 -160 117 -191 34 -31 67 -50 197 -113 69 -33 220 3 343 83 22
14 47 29 55 32 14 7 32 18 140 91 24 15 63 39 87 52 24 12 62 37 85 53 23 17
47 31 53 31 11 0 77 32 98 47 7 5 31 15 55 23 23 7 47 19 53 27 6 7 30 18 53
23 22 6 66 22 96 37 101 47 115 52 163 59 26 3 50 10 52 15 3 4 27 11 53 15
26 3 55 11 64 16 17 8 81 23 138 32 14 3 54 9 90 15 79 13 248 13 350 1 107
-14 267 -44 276 -53 4 -4 20 -7 35 -7 16 0 51 -9 79 -20 28 -11 61 -20 73 -20
12 0 31 -7 41 -15 11 -8 32 -15 47 -15 15 0 30 -4 33 -9 3 -5 29 -16 58 -26
29 -9 78 -28 108 -42 30 -13 66 -29 80 -35 14 -6 32 -14 40 -19 38 -21 178
-89 184 -89 4 0 26 -13 49 -28 23 -15 53 -33 67 -40 14 -6 34 -18 44 -24 11
-7 49 -32 85 -55 35 -24 73 -43 82 -43 10 0 22 -6 26 -13 7 -12 27 -24 118
-70 105 -53 231 -51 341 7 120 63 131 74 203 206 56 102 53 238 -7 362 -40 82
-164 218 -199 218 -6 0 -31 16 -56 35 -25 19 -50 35 -55 35 -5 0 -15 7 -22 15
-7 8 -18 15 -26 15 -7 0 -32 12 -56 28 -72 46 -82 51 -126 73 -23 12 -44 25
-47 29 -7 11 -297 151 -415 200 -83 34 -111 46 -153 64 -21 9 -43 16 -50 16
-11 0 -105 34 -137 50 -9 4 -31 11 -50 15 -19 4 -39 10 -45 14 -13 8 -100 28
-191 45 -38 7 -75 16 -82 20 -11 7 -176 30 -327 46 -99 10 -323 10 -390 -1z"/>
<path d="M5185 6030 c-3 -5 -27 -10 -53 -10 -26 0 -60 -7 -76 -15 -15 -8 -36
-15 -45 -15 -20 0 -216 -96 -245 -120 -48 -39 -166 -154 -166 -162 0 -5 -16
-28 -35 -51 -51 -61 -112 -186 -120 -245 -4 -29 -11 -54 -16 -58 -12 -7 -12
-341 0 -348 5 -3 12 -27 15 -53 6 -39 76 -196 129 -289 30 -52 193 -205 244
-230 29 -13 53 -29 53 -34 0 -6 8 -10 18 -10 9 0 44 -15 77 -32 60 -33 60 -33
301 -33 162 0 245 4 255 11 8 6 28 14 44 18 27 6 153 64 165 76 12 12 70 50
77 51 14 2 174 182 191 216 34 66 65 129 74 153 6 14 18 40 27 59 20 43 24
468 5 492 -7 8 -15 28 -19 46 -8 41 -93 208 -112 222 -10 8 -53 68 -53 76 0 9
-36 41 -53 48 -9 3 -17 13 -17 22 0 8 -5 15 -10 15 -6 0 -35 20 -66 45 -30 25
-59 45 -65 45 -5 0 -26 11 -47 23 -20 13 -55 30 -77 37 -22 7 -45 16 -51 21
-6 5 -43 12 -83 15 -39 4 -74 11 -77 15 -7 12 -181 11 -189 -1z"/>
</g>
    <!-- path end -->
  </g>
</svg>
