<?xml version="1.0" standalone="no"?><!DOCTYPE svg PUBLIC "-//W3C//DTD SVG 1.1//EN"
  "http://www.w3.org/Graphics/SVG/1.1/DTD/svg11.dtd">
<svg t="0" class="icon" viewBox="0 0 1024 1024" version="1.1" xmlns="http://www.w3.org/2000/svg"
  xmlns:xlink="http://www.w3.org/1999/xlink" width="1024" height="1024">
  <defs>
    <filter id="icon_shadow" x="-20%" y="-20%" width="140%" height="140%">
      <feGaussianBlur in="SourceAlpha" stdDeviation="20"/>
      <feOffset dx="0" dy="15" result="offsetblur"/>
      <feComponentTransfer>
        <feFuncA type="linear" slope="0.3"/>
      </feComponentTransfer>
      <feMerge>
        <feMergeNode/>
        <feMergeNode in="SourceGraphic"/>
      </feMerge>
    </filter>
  </defs>
  <g transform="translate(102.4000 102.4000) scale(0.8)" filter="url(#icon_shadow)">
    <!-- path start -->
    <g transform="translate(0.000000,1024.000000) scale(0.100000,-0.100000)"
fill="#EA2556" stroke="none">
<path d="M4830 9934 c-2253 -129 -4112 -1843 -4434 -4089 -43 -297 -57 -860
-28 -1125 70 -638 218 -1152 487 -1690 311 -623 742 -1153 1298 -1598 655
-523 1479 -876 2302 -986 256 -34 350 -40 665 -40 316 0 418 6 665 40 1957
269 3564 1748 3990 3674 122 549 147 1182 69 1725 -295 2058 -1868 3675 -3919
4030 -278 48 -794 76 -1095 59z m475 -1354 c533 -59 1166 -306 1696 -661 117
-78 144 -137 100 -219 -53 -101 -128 -105 -272 -14 -563 358 -1100 560 -1604
605 -502 45 -1127 -156 -1751 -563 -173 -113 -194 -121 -250 -102 -98 33 -129
145 -63 228 24 31 258 188 403 271 439 251 917 416 1326 458 78 8 331 6 415
-3z m-100 -970 c313 -27 581 -107 930 -275 174 -85 411 -225 460 -272 72 -70
65 -166 -16 -220 -68 -45 -99 -38 -248 56 -521 325 -1037 470 -1446 407 -316
-50 -679 -202 -997 -418 -104 -71 -131 -80 -183 -62 -93 31 -133 131 -85 209
49 80 426 299 712 414 255 103 432 144 738 170 8 0 69 -4 135 -9z m64 -981
c216 -75 361 -313 318 -523 -108 -527 -819 -530 -934 -4 -72 334 285 640 616
527z m-2143 -120 c69 -67 64 68 64 -1666 0 -1088 3 -1587 11 -1628 23 -127
109 -239 229 -298 65 -32 65 -32 1690 -32 1625 0 1625 0 1690 31 118 57 205
170 229 299 8 41 11 540 11 1628 0 1734 -5 1599 64 1666 92 89 230 58 287 -64
18 -38 19 -111 19 -1897 0 -1270 -3 -1881 -11 -1935 -57 -414 -326 -740 -694
-839 -120 -32 -3095 -29 -3208 3 -347 101 -605 403 -673 787 -21 119 -21 3830
0 3879 51 120 201 154 292 66z"/>
</g>
    <!-- path end -->
  </g>
</svg>
